<?xml version="1.0" standalone="no"?>
<!DOCTYPE svg PUBLIC "-//W3C//DTD SVG 20010904//EN"
 "http://www.w3.org/TR/2001/REC-SVG-20010904/DTD/svg10.dtd">
<svg version="1.0" xmlns="http://www.w3.org/2000/svg"
 width="1361.000000pt" height="1361.000000pt" viewBox="0 0 1361.000000 1361.000000"
 preserveAspectRatio="xMidYMid meet">
<metadata>
Created by potrace 1.14, written by Peter Selinger 2001-2017
</metadata>
<g transform="translate(0.000000,1361.000000) scale(0.100000,-0.100000)"
fill="#000000" stroke="none">
<path d="M2589 11723 c-13 -16 -12 -17 4 -4 16 13 21 21 13 21 -2 0 -10 -8
-17 -17z"/>
<path d="M10940 11736 c0 -2 8 -10 18 -17 15 -13 16 -12 3 4 -13 16 -21 21
-21 13z"/>
<path d="M2549 11693 c-13 -16 -12 -17 4 -4 9 7 17 15 17 17 0 8 -8 3 -21 -13z"/>
<path d="M10980 11706 c0 -2 8 -10 18 -17 15 -13 16 -12 3 4 -13 16 -21 21
-21 13z"/>
<path d="M3580 11243 c-37 -12 -98 -48 -129 -75 -166 -146 -383 -540 -605
-1098 -85 -212 -102 -257 -155 -400 -68 -182 -348 -1033 -410 -1245 -14 -47
-30 -80 -50 -99 -16 -15 -37 -46 -46 -69 -10 -23 -26 -60 -35 -82 -10 -22 -57
-134 -104 -250 -48 -115 -91 -219 -96 -230 -4 -11 -25 -63 -45 -115 -21 -52
-43 -108 -51 -125 -103 -233 -478 -1299 -554 -1575 -15 -58 -36 -130 -45 -160
-9 -30 -25 -85 -34 -121 -10 -37 -22 -72 -26 -79 -4 -7 -12 -29 -17 -49 -5
-20 -13 -49 -18 -66 -5 -16 -21 -73 -35 -125 -46 -166 -63 -225 -75 -265 -5
-16 -18 -64 -29 -105 -10 -41 -29 -111 -41 -155 -51 -188 -110 -429 -110 -447
0 -46 185 -432 327 -681 417 -736 950 -1360 1613 -1892 162 -130 490 -360 650
-455 58 -35 107 -66 110 -69 3 -3 10 -7 17 -8 17 -4 147 -83 154 -95 3 -5 8
-9 10 -7 10 5 49 -13 44 -22 -3 -5 2 -6 11 -2 13 5 15 3 9 -7 -5 -8 -4 -11 3
-6 12 7 82 -23 82 -36 0 -5 4 -6 10 -3 5 3 10 1 10 -5 0 -6 5 -8 10 -5 5 3 10
1 10 -5 0 -6 5 -8 10 -5 6 3 10 1 10 -5 0 -6 4 -8 10 -5 5 3 10 1 10 -5 0 -6
4 -8 10 -5 5 3 10 1 10 -5 0 -6 4 -8 10 -5 5 3 10 1 10 -4 0 -6 3 -10 8 -9 4
1 36 -12 72 -29 305 -145 716 -293 1064 -383 172 -44 140 -42 592 -41 l341 1
11 25 c15 32 1 109 -33 182 -13 29 -22 53 -19 53 2 0 -2 13 -10 28 -8 15 -17
48 -21 72 -7 46 -59 150 -75 150 -12 0 -35 50 -59 127 -14 46 -35 82 -80 135
-33 40 -71 93 -84 118 -65 121 -91 167 -112 192 -12 14 -27 46 -33 71 -7 24
-18 50 -27 57 -8 7 -22 38 -31 69 -9 31 -35 108 -59 171 -24 63 -58 158 -75
210 -33 98 -76 205 -110 275 -31 63 -171 483 -180 539 -13 79 -29 134 -50 177
-18 35 -21 71 -30 361 -6 178 -14 346 -20 373 -8 44 -16 143 -36 435 -4 67
-11 94 -32 130 -56 95 -62 116 -62 200 l0 80 29 0 c17 0 33 5 37 12 13 20 4
80 -17 124 -32 68 -23 75 112 88 31 3 71 12 90 20 19 7 88 16 155 20 66 3 136
11 155 16 18 6 73 10 121 10 63 0 105 6 148 21 50 17 74 20 147 15 49 -3 106
-7 128 -7 59 -2 216 17 248 30 16 6 40 11 54 11 29 0 126 44 144 66 6 8 15 14
20 14 16 0 87 80 113 125 13 24 32 67 41 95 31 94 -4 201 -95 286 -16 16 -30
37 -30 48 0 15 5 17 31 12 20 -4 43 1 67 13 20 10 56 22 79 26 23 3 47 13 53
20 6 7 30 17 53 20 23 4 64 18 91 31 28 13 53 24 58 24 33 0 198 166 198 200
0 8 11 32 25 52 13 20 32 56 42 79 17 44 76 139 120 192 13 16 23 37 23 47 0
11 14 39 31 63 35 50 56 165 44 245 -6 41 -15 54 -68 105 -53 49 -67 57 -99
57 -31 0 -45 7 -72 35 -19 19 -37 35 -41 35 -4 0 -21 6 -38 14 -18 8 -43 16
-57 19 -96 18 -197 53 -280 96 -19 10 -55 22 -80 25 -25 4 -59 15 -75 26 -17
11 -36 20 -44 20 -20 0 -170 55 -261 95 -41 18 -89 38 -107 45 -17 6 -42 28
-56 48 -13 21 -56 69 -96 107 -39 38 -71 74 -71 78 0 5 -10 23 -22 39 -35 49
-73 370 -50 415 14 25 -8 109 -43 161 -22 34 -25 46 -20 88 6 45 4 52 -28 94
-20 25 -37 56 -39 70 -2 14 -14 30 -28 37 -14 7 -25 16 -25 20 0 4 -20 28 -43
53 -23 25 -41 52 -39 61 3 8 -2 24 -9 34 -8 10 -14 24 -14 31 0 6 -14 27 -31
45 -18 19 -42 51 -55 71 -14 21 -39 44 -58 52 -21 9 -46 33 -67 65 -19 28 -41
51 -49 51 -24 0 -80 59 -80 85 0 16 -11 30 -35 44 -19 11 -40 32 -47 46 -6 14
-15 25 -20 25 -6 0 -30 21 -55 46 -36 37 -47 44 -54 33 -8 -11 -9 -9 -7 7 3
24 -27 64 -49 64 -7 0 -33 30 -58 68 -74 113 -182 269 -219 318 -20 26 -36 54
-36 63 0 9 -16 42 -35 74 -19 32 -38 69 -41 82 -3 14 -10 25 -15 25 -6 0 -19
16 -30 35 -17 28 -24 33 -35 24 -19 -15 -44 -4 -44 19 0 11 -7 25 -15 32 -8 7
-15 25 -15 41 0 19 -12 41 -34 65 l-35 37 -23 -26 c-35 -40 -48 -37 -63 13
-16 56 -48 150 -86 256 -16 45 -29 89 -29 98 0 10 -11 32 -24 49 -13 18 -27
43 -31 55 -13 43 -120 216 -175 282 -21 25 -48 64 -60 88 -12 23 -26 42 -30
42 -5 0 -12 10 -16 22 -9 30 -67 119 -90 139 -42 36 -113 56 -154 42z"/>
<path d="M1979 11143 l-34 -38 38 34 c20 19 37 36 37 38 0 8 -8 0 -41 -34z"/>
<path d="M11560 11145 c19 -19 36 -35 39 -35 3 0 -10 16 -29 35 -19 19 -36 35
-39 35 -3 0 10 -16 29 -35z"/>
<path d="M1349 10343 c-13 -16 -12 -17 4 -4 16 13 21 21 13 21 -2 0 -10 -8
-17 -17z"/>
<path d="M12180 10356 c0 -2 8 -10 18 -17 15 -13 16 -12 3 4 -13 16 -21 21
-21 13z"/>
<path d="M401 8024 c0 -11 3 -14 6 -6 3 7 2 16 -1 19 -3 4 -6 -2 -5 -13z"/>
<path d="M13141 8024 c0 -11 3 -14 6 -6 3 7 2 16 -1 19 -3 4 -6 -2 -5 -13z"/>
<path d="M381 7924 c0 -11 3 -14 6 -6 3 7 2 16 -1 19 -3 4 -6 -2 -5 -13z"/>
<path d="M13161 7924 c0 -11 3 -14 6 -6 3 7 2 16 -1 19 -3 4 -6 -2 -5 -13z"/>
<path d="M11524 7433 c-45 -9 -182 -133 -266 -241 -46 -59 -119 -143 -163
-188 -44 -45 -111 -115 -150 -156 -59 -63 -76 -76 -110 -81 -40 -6 -143 -24
-286 -51 -118 -22 -157 -35 -258 -83 -201 -95 -431 -228 -511 -296 -19 -16
-70 -55 -112 -86 -42 -31 -107 -84 -145 -118 -172 -153 -210 -177 -348 -213
-38 -10 -85 -24 -103 -30 -18 -7 -39 -9 -47 -6 -26 10 -43 -35 -59 -154 -43
-322 -6 -770 90 -1090 29 -97 112 -269 173 -359 23 -33 41 -63 41 -66 0 -16
92 -129 159 -194 93 -90 284 -235 406 -306 108 -64 249 -135 267 -135 7 0 24
-6 38 -13 14 -7 48 -21 75 -31 73 -27 75 -30 75 -110 0 -136 -92 -322 -289
-586 -162 -217 -240 -295 -326 -327 -122 -44 -381 -143 -400 -153 -19 -9 -168
-64 -260 -95 -39 -13 -127 -38 -397 -111 -70 -19 -147 -41 -170 -49 -65 -23
-304 -79 -463 -108 -44 -8 -147 -28 -230 -45 -264 -54 -338 -62 -479 -52 -110
8 -143 15 -263 56 -76 26 -154 55 -173 65 -19 11 -39 19 -45 19 -6 0 -49 16
-95 36 -175 74 -252 94 -364 94 -66 0 -106 -4 -114 -12 -7 -7 -12 -30 -12 -52
0 -22 -12 -77 -27 -122 l-26 -82 22 -55 c42 -102 187 -218 371 -296 30 -13 69
-29 86 -36 18 -8 49 -17 70 -20 124 -22 297 -77 502 -161 46 -19 90 -34 98
-34 8 0 37 -11 66 -25 28 -14 56 -25 61 -25 5 0 21 -8 35 -18 15 -10 66 -35
115 -56 48 -20 118 -52 155 -71 37 -19 75 -35 84 -35 16 0 46 -12 173 -70 22
-10 67 -26 100 -36 72 -21 187 -70 235 -99 19 -12 78 -39 130 -59 52 -21 125
-53 161 -71 52 -26 80 -33 142 -37 42 -2 77 0 77 5 0 4 4 6 9 2 5 -3 13 0 16
6 4 5 13 8 21 5 8 -3 14 -1 14 5 0 6 7 9 15 5 8 -3 15 -1 15 5 0 6 7 9 15 5 8
-3 15 -1 15 5 0 6 7 9 15 5 8 -3 15 -1 15 5 0 6 7 9 15 5 8 -3 15 -1 15 5 0 6
7 8 16 5 9 -4 13 -2 8 5 -4 8 1 9 16 4 17 -5 21 -4 15 6 -6 9 -3 11 8 6 10 -3
17 -2 17 3 0 5 7 7 15 4 8 -4 15 -1 15 6 0 6 4 9 9 6 5 -4 11 -3 13 2 1 4 37
21 78 37 41 16 85 35 98 43 12 8 22 11 22 8 0 -4 15 1 33 11 17 9 35 16 40 15
4 -1 7 3 7 9 0 5 4 8 9 4 5 -3 12 -1 16 5 4 6 11 8 16 5 5 -4 9 -2 9 3 0 12
49 34 61 27 5 -4 9 -1 9 5 0 6 5 8 10 5 6 -3 10 -1 10 5 0 6 5 8 10 5 6 -3 10
-1 10 5 0 6 5 8 10 5 6 -3 10 -1 10 5 0 6 5 8 10 5 6 -3 10 -1 10 5 0 6 5 8
10 5 6 -3 10 -2 10 3 0 12 69 44 81 37 5 -4 9 -2 9 3 0 6 17 17 38 25 20 8 61
31 91 51 29 20 58 36 65 36 7 0 34 14 62 32 27 18 52 31 57 30 4 -1 7 3 7 9 0
5 5 7 10 4 6 -3 10 -1 10 5 0 6 4 9 9 6 5 -3 12 1 15 10 3 8 10 12 16 9 5 -3
10 -1 10 6 0 7 3 9 7 6 3 -4 17 3 30 15 13 12 23 18 23 14 0 -4 10 3 22 14 13
11 33 23 45 26 13 4 23 10 23 15 0 5 7 9 15 9 8 0 15 5 15 10 0 6 6 10 13 10
7 0 24 11 39 25 15 14 32 25 38 25 5 0 10 5 10 10 0 6 7 10 15 10 8 0 15 5 15
11 0 5 5 7 10 4 6 -3 13 1 16 9 3 9 12 16 20 16 8 0 14 5 14 10 0 6 7 10 15
10 8 0 15 5 15 11 0 5 4 8 9 4 6 -3 13 0 18 8 4 7 22 21 38 32 17 10 35 24 42
30 6 6 48 38 92 71 45 32 81 62 81 66 0 4 6 8 13 8 6 0 34 21 60 45 26 25 51
45 55 45 4 0 23 15 43 34 19 19 64 58 100 87 129 107 485 464 608 609 34 41
83 99 108 128 48 56 57 67 172 219 137 181 252 346 224 321 -18 -17 -20 -15
-51 57 -18 41 -32 80 -32 86 0 7 -15 57 -34 113 -65 195 -76 256 -76 421 l0
110 94 97 c171 176 286 381 387 692 56 171 72 301 67 561 -4 163 -10 259 -23
331 l-19 100 32 46 c97 140 111 334 43 576 -22 81 -79 212 -92 212 -4 0 -10 8
-14 18 -7 22 -122 144 -157 166 -47 30 -121 16 -235 -45 -54 -29 -107 -58
-118 -65 -11 -8 -22 -14 -26 -14 -3 0 -9 40 -12 88 -8 108 -33 191 -84 280
-21 37 -47 84 -58 104 -37 68 -189 234 -220 241 -11 2 -29 2 -41 0z"/>
<path d="M312 7390 c0 -14 2 -19 5 -12 2 6 2 18 0 25 -3 6 -5 1 -5 -13z"/>
<path d="M13232 7390 c0 -14 2 -19 5 -12 2 6 2 18 0 25 -3 6 -5 1 -5 -13z"/>
<path d="M303 7305 c0 -22 2 -30 4 -17 2 12 2 30 0 40 -3 9 -5 -1 -4 -23z"/>
<path d="M13243 7305 c0 -22 2 -30 4 -17 2 12 2 30 0 40 -3 9 -5 -1 -4 -23z"/>
<path d="M283 6900 c0 -25 2 -35 4 -22 2 12 2 32 0 45 -2 12 -4 2 -4 -23z"/>
<path d="M13263 6900 c0 -25 2 -35 4 -22 2 12 2 32 0 45 -2 12 -4 2 -4 -23z"/>
<path d="M283 6700 c0 -25 2 -35 4 -22 2 12 2 32 0 45 -2 12 -4 2 -4 -23z"/>
<path d="M13263 6700 c0 -25 2 -35 4 -22 2 12 2 32 0 45 -2 12 -4 2 -4 -23z"/>
<path d="M303 6295 c0 -22 2 -30 4 -17 2 12 2 30 0 40 -3 9 -5 -1 -4 -23z"/>
<path d="M13243 6295 c0 -22 2 -30 4 -17 2 12 2 30 0 40 -3 9 -5 -1 -4 -23z"/>
<path d="M312 6210 c0 -14 2 -19 5 -12 2 6 2 18 0 25 -3 6 -5 1 -5 -13z"/>
<path d="M13232 6210 c0 -14 2 -19 5 -12 2 6 2 18 0 25 -3 6 -5 1 -5 -13z"/>
<path d="M381 5674 c0 -11 3 -14 6 -6 3 7 2 16 -1 19 -3 4 -6 -2 -5 -13z"/>
<path d="M13161 5674 c0 -11 3 -14 6 -6 3 7 2 16 -1 19 -3 4 -6 -2 -5 -13z"/>
<path d="M1340 3266 c0 -2 8 -10 18 -17 15 -13 16 -12 3 4 -13 16 -21 21 -21
13z"/>
<path d="M1980 2455 c19 -19 36 -35 39 -35 3 0 -10 16 -29 35 -19 19 -36 35
-39 35 -3 0 10 -16 29 -35z"/>
<path d="M2540 1916 c0 -2 8 -10 18 -17 15 -13 16 -12 3 4 -13 16 -21 21 -21
13z"/>
<path d="M2580 1886 c0 -2 8 -10 18 -17 15 -13 16 -12 3 4 -13 16 -21 21 -21
13z"/>
</g>
</svg>
